<?xml version="1.0" encoding="utf-8"?>
<!-- Generator: Adobe Illustrator 23.0.3, SVG Export Plug-In . SVG Version: 6.00 Build 0)  -->
<svg version="1.1" id="Layer_1" xmlns="http://www.w3.org/2000/svg" xmlns:xlink="http://www.w3.org/1999/xlink" x="0px" y="0px"
	 viewBox="0 0 1200 1200" enable-background="new 0 0 1200 1200" xml:space="preserve">
<path fill="#302B2C" d="M446.718,793.296L187.721,1104.02c-2.052,2.458-3.131,5.565-3.04,8.779c0.084,2.981-0.86,5.897-2.658,8.279
	l-20.23,26.625c-1.956,2.549-5.624,3.071-8.197,1.092l-41.361-31.261c-2.573-1.979-3.095-5.646-1.116-8.219l20.342-26.791
	c1.731-2.262,4.155-3.916,6.908-4.669l0.671-0.182c2.683-0.728,5.062-2.333,6.796-4.503l254.14-325.155
	c0,0,21.223,20.428,26.576,25.126C431.881,777.863,446.718,793.296,446.718,793.296z M450.116,749.026
	c-0.874-1.046-1.624-1.706-2.221-2.932c-0.492-1.01-1.687-2.666-2.581-4.312c-4.267-7.801-11.386-22.813-21.498-25.622
	c-1.527,2.029-15.536,20.508-15.536,20.508c5.297,0.606,47.861,46.365,47.861,46.365l13.557-15.694
	C469.699,767.339,457.886,758.33,450.116,749.026z M809.852,199.449c-51.791,58.608-349.118,462.033-378.185,501.522
	c10.112,2.809,18.709,16.172,22.976,23.973c13.237,5.037,23.076,0.205,23.076,0.205s274.973-408.728,368.094-505.105
	c95.039-98.362,208.21-169.212,208.21-169.212c-4.095-0.791-10.009-1.833-20.912,1.214
	C1033.111,52.047,864.325,137.849,809.852,199.449z M496.104,732.702l15.564,16.466c0,0,404.873-498.107,576.276-660.978
	c2.547-2.435,2.863-6.392,0.723-9.198l-16.439-21.315c-1.043-1.329-2.501-2.218-4.145-2.549c0,0-110.77,79.416-206.018,173.692
	C766.841,323.12,496.104,732.702,496.104,732.702z M461.294,739.921c1.856,3.418,1.047,2.359,1.047,2.359
	c7.599,10.021,18.133,17.144,18.133,17.144s11.087,2.51,18.872-0.55l-16.914-17.494C482.432,741.38,474.885,744.081,461.294,739.921
	z M527.798,213.723c-0.122,0.036-0.23,0.097-0.347,0.14c-2.297-3.335-4.393-6.832-6.237-10.495c0.829-0.304,1.66-0.602,2.483-0.919
	c0.472-0.181,0.908-0.411,1.31-0.685c2.412-1.642,3.468-4.78,2.374-7.62c-1.275-3.313-4.993-4.963-8.307-3.685
	c-0.925,0.356-1.858,0.691-2.789,1.032c-1.488-4.457-2.656-9.083-3.449-13.865c-8.113-48.945,24.989-95.199,73.933-103.311
	c22.569-3.741,44.556,1.297,62.505,12.594c-0.245,0.356-0.489,0.716-0.736,1.066c-2.047,2.898-1.356,6.908,1.544,8.956
	c2.25,1.588,5.172,1.526,7.322,0.063c0.62-0.422,1.176-0.96,1.634-1.609c0.202-0.286,0.4-0.579,0.6-0.87
	c2.845,2.415,5.538,5.011,8.069,7.771c-15.158,22.47-29.792,39.78-46.045,54.458C591.004,184.435,556.782,205.204,527.798,213.723z
	 M619.528,131.742c2.221,2.193,5.636,2.434,8.123,0.742c0.341-0.232,0.665-0.502,0.964-0.804c3.451-3.5,6.808-7.072,9.979-10.615
	c2.369-2.645,2.142-6.707-0.501-9.074c-2.649-2.37-6.741-2.124-9.073,0.503c-3.034,3.389-6.248,6.808-9.554,10.159
	C616.973,125.181,617.002,129.251,619.528,131.742z M584.206,161.688c2.082,2.726,5.915,3.322,8.717,1.415
	c0.099-0.067,0.195-0.137,0.291-0.209c3.818-2.917,7.639-5.973,11.357-9.082c2.72-2.276,3.082-6.329,0.805-9.051
	c-2.275-2.723-6.299-3.136-9.054-0.804c-3.569,2.987-7.241,5.923-10.91,8.725C582.593,154.835,582.05,158.868,584.206,161.688z
	 M568.34,172.562c-1.843-3.033-5.796-3.995-8.828-2.152c-3.983,2.423-8.046,4.755-12.077,6.931c-3.154,1.695-4.29,5.586-2.604,8.706
	c1.687,3.124,5.584,4.29,8.707,2.603c4.224-2.279,8.483-4.722,12.652-7.258c0.095-0.059,0.189-0.119,0.281-0.182
	C569.281,179.297,570.126,175.498,568.34,172.562z M682.699,140.274c1.801,1.16,3.946,1.263,5.802,0.539
	c0.616,2.438,1.16,4.91,1.579,7.435c8.113,48.945-24.989,95.199-73.933,103.311c-19.773,3.278-39.103-0.177-55.66-8.679
	c0.324-1.153,0.365-2.39-0.044-3.616c-1.12-3.367-4.759-5.189-8.124-4.069c-0.996,0.332-1.98,0.612-2.969,0.91
	c-4.789-3.411-9.246-7.288-13.295-11.581c18.276-6.007,38.157-16.186,57.872-29.603c12.347-8.403,24.614-18.043,36.35-28.639
	c16.197-14.63,30.808-31.735,45.743-53.438c2.925,4.347,5.506,8.966,7.655,13.851c-0.909,1.533-1.863,3.093-2.895,4.696
	C678.855,134.375,679.716,138.35,682.699,140.274z M601.653,217.606c-1.873-3.014-5.834-3.939-8.849-2.065
	c-4.059,2.522-8.12,4.893-12.068,7.044c-3.116,1.678-4.263,5.602-2.565,8.716c1.698,3.116,5.601,4.266,8.719,2.566
	c4.158-2.266,8.432-4.762,12.698-7.412c0.078-0.047,0.155-0.098,0.227-0.147C602.647,224.38,603.478,220.543,601.653,217.606z
	 M638.653,189.301c-2.294-2.707-6.348-3.065-9.057-0.749c-3.594,3.044-7.27,6.03-10.923,8.872c-2.802,2.18-3.306,6.218-1.126,9.019
	c2.094,2.691,5.901,3.261,8.682,1.369c0.114-0.078,0.226-0.159,0.336-0.244c3.794-2.952,7.609-6.051,11.337-9.211
	C640.61,196.065,640.944,192.01,638.653,189.301z M670.993,155.804c-2.709-2.292-6.747-1.959-9.057,0.757
	c-3.11,3.676-6.243,7.192-9.31,10.445c-2.435,2.583-2.316,6.651,0.266,9.085c2.235,2.107,5.582,2.3,8.019,0.642
	c0.379-0.258,0.737-0.562,1.064-0.909c3.227-3.422,6.515-7.112,9.775-10.966C674.042,162.15,673.703,158.095,670.993,155.804z"/>
</svg>
