<?xml version="1.0" encoding="utf-8"?>
<!-- Generator: Adobe Illustrator 23.0.3, SVG Export Plug-In . SVG Version: 6.00 Build 0)  -->
<svg version="1.1" id="Layer_1" xmlns="http://www.w3.org/2000/svg" xmlns:xlink="http://www.w3.org/1999/xlink" x="0px" y="0px"
	 viewBox="0 0 1200 1200" enable-background="new 0 0 1200 1200" xml:space="preserve">
<path fill="#302B2C" d="M593.4,91.173c-7.942,1.109-15.238,4.178-21.406,8.72l-2.771,0.727h-14.472V67.842h34.18
	c2.468,0,4.469,2.001,4.469,4.47V91.173z M391.353,97.332c1.663,0.993,3.26,2.097,4.784,3.288h15.753V67.842h-44.079
	c-2.469,0-4.469,2.001-4.469,4.47v18.51c1.244-0.098,2.497-0.162,3.767-0.162C375.962,90.66,384.246,93.102,391.353,97.332z
	 M442.307,50c-3.881,0-7.37,1.57-9.854,4.099c-2.529,2.529-4.1,6.017-4.1,9.855v39.026c0,7.718,6.236,13.953,13.954,13.953
	c7.718,0,13.954-6.235,13.954-13.953V63.953C456.261,56.236,450.025,50,442.307,50z M484.439,50c-3.881,0-7.369,1.57-9.855,4.099
	c-2.529,2.529-4.099,6.017-4.099,9.855v39.026c0,7.718,6.236,13.953,13.954,13.953c7.717,0,13.953-6.235,13.953-13.953V63.953
	C498.393,56.236,492.157,50,484.439,50z M526.572,50c-3.881,0-7.37,1.57-9.855,4.099c-2.529,2.529-4.099,6.017-4.099,9.855v39.026
	c0,7.718,6.235,13.953,13.954,13.953c7.717,0,13.953-6.235,13.953-13.953V63.953C540.525,56.236,534.289,50,526.572,50z
	 M612.443,67.842c-2.468,0-4.469,2.001-4.469,4.47v19.075c7.076,1.206,13.611,3.962,19.245,7.939l4.932,1.294h14.472V67.842H612.443
	z M832.887,90.66c1.741,0,3.451,0.121,5.143,0.305V72.312c0-2.469-2.001-4.47-4.469-4.47h-44.079v32.777h14.356
	c1.535-1.191,3.143-2.295,4.805-3.288C815.751,93.102,824.035,90.66,832.887,90.66z M759.066,116.932
	c7.718,0,13.954-6.235,13.954-13.953V63.953c0-3.837-1.571-7.326-4.1-9.855C766.435,51.57,762.947,50,759.066,50
	c-7.718,0-13.954,6.236-13.954,13.953v39.026C745.112,110.697,751.348,116.932,759.066,116.932z M716.934,116.932
	c7.718,0,13.954-6.235,13.954-13.953V63.953c0-3.837-1.57-7.326-4.099-9.855C724.303,51.57,720.814,50,716.934,50
	c-7.717,0-13.953,6.236-13.953,13.953v39.026C702.98,110.697,709.216,116.932,716.934,116.932z M688.755,63.953
	c0-3.837-1.57-7.326-4.099-9.855C682.171,51.57,678.682,50,674.801,50c-7.718,0-13.954,6.236-13.954,13.953v39.026
	c0,7.718,6.236,13.953,13.954,13.953c7.718,0,13.954-6.235,13.954-13.953V63.953z M384.078,109.555
	c-5.132-3.055-11-4.669-16.967-4.669c-5.971,0-11.836,1.614-16.961,4.665c-9.945,5.929-16.125,16.819-16.125,28.42V1150h66.171
	V137.972c0-8.858-3.434-17.154-9.701-23.388C388.522,112.609,386.361,110.918,384.078,109.555z M599.984,104.886
	c-18.244,0-33.082,14.842-33.082,33.086V1150h66.168V137.972C633.07,119.728,618.228,104.886,599.984,104.886z M849.856,109.555
	c-5.132-3.055-11-4.669-16.97-4.669c-5.968,0-11.836,1.614-16.954,4.662c-2.328,1.389-4.569,3.132-6.476,5.035
	c-6.225,6.225-9.652,14.53-9.652,23.388V1150h66.171V137.972C865.974,126.374,859.795,115.48,849.856,109.555z"/>
</svg>
